# xmcd
#
# Track frame offsets:
#	150
#	55887
#	89365
#	132163
#	146860
#	162818
#	204265
#	228512
#	255776
#	279898
#
# Disc length: 4096 seconds
#
# Revision: 1
# Processed by: cddbd v1.5.2PL0 Copyright (c) Steve Scherf et al.
# Submitted via: audiograbber 1.83.01
#
DISCID=800ffe0a
DTITLE=Grateful Dead - 77-11-06 Broome County Arena, Binghampton NY
DYEAR=1900
DGENRE=
TTITLE0=Mississippi Half-Step
TTITLE1=Jack Straw
TTITLE2=Tennessee Jed
TTITLE3=Mexicali Blues
TTITLE4=Me and My Uncle
TTITLE5=Friend Of The Devil
TTITLE6=New Minglewood Blues
TTITLE7=Dupree's Diamond Blues
TTITLE8=Passenger
TTITLE9=Dire Wolf
EXTD=
EXTT0=
EXTT1=
EXTT2=
EXTT3=
EXTT4=
EXTT5=
EXTT6=
EXTT7=
EXTT8=
EXTT9=
PLAYORDER=
